<?xml version="1.0" encoding="UTF-8"?>
<svg version="1.1" xmlns="http://www.w3.org/2000/svg" width="1024" height="1024">
<path d="M0 0 C337.92 0 675.84 0 1024 0 C1024 337.92 1024 675.84 1024 1024 C686.08 1024 348.16 1024 0 1024 C0 686.08 0 348.16 0 0 Z " fill="#363B40" transform="translate(0,0)"/>
<path d="M0 0 C3 0.25 3 0.25 5 2.25 C4.87326197 8.14331818 3.19560279 10.80347422 -0.875 14.9375 C-1.87797865 15.97750357 -2.88057165 17.01787916 -3.8828125 18.05859375 C-4.39875977 18.58437012 -4.91470703 19.11014648 -5.44628906 19.65185547 C-7.93841436 22.21525147 -10.34189374 24.85794178 -12.75 27.5 C-13.20528076 27.9962085 -13.66056152 28.49241699 -14.12963867 29.00366211 C-17.81936449 33.02875657 -21.43555752 37.11378689 -25 41.25 C-23.58261511 44.50207092 -21.87473588 46.56361067 -19.3125 49 C-16.69997512 51.54721176 -14.18899229 54.10638648 -11.8125 56.875 C-8.42222764 60.81335334 -4.91023899 64.62971075 -1.375 68.4375 C-0.82432861 69.03191895 -0.27365723 69.62633789 0.29370117 70.23876953 C3.46356567 73.64600372 6.69286338 76.97471381 10 80.25 C10.86238281 81.12398437 11.72476563 81.99796875 12.61328125 82.8984375 C17.26874203 87.60105924 21.94369212 92.21353259 26.98046875 96.51171875 C29.32064189 98.5259877 31.59467655 100.60577392 33.875 102.6875 C37.92611856 106.34217882 42.08240276 109.80846351 46.375 113.17529297 C47.99956001 114.45928767 49.61475214 115.75535744 51.21435547 117.0703125 C57.89730848 122.54847162 64.92569013 127.42410841 72.125 132.1875 C72.71683075 132.58085541 73.3086615 132.97421082 73.91842651 133.37948608 C83.05107389 139.44148193 92.27992317 145.17252335 102 150.25 C103.36705078 150.9925 103.36705078 150.9925 104.76171875 151.75 C110.14994372 154.59214064 115.59073817 156.53618882 121.43359375 158.2578125 C124.02931573 159.26133363 125.35422392 160.02369331 127 162.25 C126.75546876 165.59192692 126.39456443 166.85543557 124 169.25 C117.91702703 169.92330617 113.55584744 168.22341115 108.125 165.8125 C107.29564941 165.45196533 106.46629883 165.09143066 105.61181641 164.7199707 C90.90037163 158.21562452 77.29452047 150.27888142 64 141.25 C63.39591309 140.84168945 62.79182617 140.43337891 62.16943359 140.01269531 C52.83362379 133.65695303 44.08265092 126.61873469 35.46142578 119.33007812 C33.61811386 117.77234974 31.76687798 116.22650845 29.90966797 114.68554688 C20.46476413 106.7874164 11.77028224 98.2570656 3.125 89.5 C1.74396709 88.10890078 0.36245887 86.71827327 -1.01953125 85.328125 C-4.3518329 81.97413699 -7.67772734 78.61392121 -11 75.25 C-12.11994049 76.20864778 -13.23969664 77.16751092 -14.359375 78.12646484 C-14.98295898 78.66040863 -15.60654297 79.19435242 -16.24902344 79.74447632 C-18.19980768 81.42179853 -20.12710657 83.11080128 -22 84.875 C-22.598125 85.42414063 -23.19625 85.97328125 -23.8125 86.5390625 C-25.20348054 88.15430906 -25.20348054 88.15430906 -24.84277344 90.07006836 C-23.69914426 93.02819841 -21.96488256 94.62245669 -19.703125 96.83984375 C-18.8265625 97.70673828 -17.95 98.57363281 -17.046875 99.46679688 C-16.12390625 100.36462891 -15.2009375 101.26246094 -14.25 102.1875 C-13.3425 103.08146484 -12.435 103.97542969 -11.5 104.89648438 C-9.79929429 106.57108276 -8.09552225 108.24257687 -6.38769531 109.90991211 C-4.68647679 111.57721063 -2.99548501 113.25497109 -1.31152344 114.93969727 C0.04263523 116.29314081 1.41124218 117.63288065 2.8125 118.9375 C4 120.25 4 120.25 4 122.25 C4.58523437 122.51167969 5.17046875 122.77335938 5.7734375 123.04296875 C8.12335376 124.31687072 9.73269934 125.68270353 11.625 127.5625 C12.21539062 128.13613281 12.80578125 128.70976563 13.4140625 129.30078125 C15.20149691 131.49765261 16.07431692 133.5875155 17 136.25 C15.50341097 137.77419005 14.00251195 139.29414831 12.5 140.8125 C11.6646875 141.65941406 10.829375 142.50632812 9.96875 143.37890625 C7.8217169 145.50357733 5.58706946 147.48370009 3.29199219 149.44702148 C-0.89495502 153.09762199 -4.77744149 156.98092435 -8.640625 160.96875 C-10.05409711 162.40943364 -11.4681768 163.84952139 -12.8828125 165.2890625 C-15.08322212 167.53298584 -17.27948224 169.78044376 -19.46582031 172.03808594 C-21.59615781 174.23467116 -23.74177418 176.41529338 -25.890625 178.59375 C-26.87195404 179.61849426 -26.87195404 179.61849426 -27.87310791 180.66394043 C-28.48764832 181.28208618 -29.10218872 181.90023193 -29.73535156 182.53710938 C-30.27081604 183.08669312 -30.80628052 183.63627686 -31.35797119 184.20251465 C-33 185.25 -33 185.25 -35.00042725 185.09132385 C-37.2109501 184.16124237 -38.52322519 183.15266021 -40.2578125 181.50170898 C-40.87398437 180.92074966 -41.49015625 180.33979034 -42.125 179.7412262 C-42.785 179.10345749 -43.445 178.46568878 -44.125 177.80859375 C-45.17300781 176.81042885 -45.17300781 176.81042885 -46.2421875 175.792099 C-54.62655594 167.76596394 -62.81668494 159.54253153 -71 151.3125 C-72.56486528 149.74260039 -74.12996842 148.17293783 -75.6953125 146.60351562 C-79.46627311 142.8217239 -83.23434424 139.03707361 -87 135.25 C-85.44343281 131.51741507 -83.15022699 129.16435665 -80.29418945 126.33300781 C-79.81746292 125.85759552 -79.34073639 125.38218323 -78.8495636 124.8923645 C-77.27535252 123.32463309 -75.69428349 121.76400487 -74.11328125 120.203125 C-73.01138653 119.10750755 -71.91000995 118.01136878 -70.80912781 116.91473389 C-67.90783214 114.02673628 -65.00103282 111.14434797 -62.09259033 108.2635498 C-57.45465632 103.66871129 -52.82328259 99.06728801 -48.195364 94.4623642 C-46.58768724 92.86479887 -44.97657756 91.27075921 -43.36506653 89.67706299 C-38.51584946 84.86737073 -33.76825578 80.02430801 -29.34146118 74.81878662 C-27.6722758 72.86673931 -25.89673877 71.04680533 -24.0625 69.25 C-23.18271484 68.38375 -23.18271484 68.38375 -22.28515625 67.5 C-21.86105469 67.0875 -21.43695313 66.675 -21 66.25 C-22.61537444 62.35082032 -25.27924873 59.53706228 -28.125 56.5 C-28.82689453 55.74009766 -28.82689453 55.74009766 -29.54296875 54.96484375 C-30.69126541 53.72280859 -31.84508672 52.48588506 -33 51.25 C-36.13608345 52.61145308 -37.9145345 54.04511789 -40.0625 56.6875 C-43.84595783 61.17069412 -47.96105991 65.24727027 -52.15625 69.34375 C-54.28559186 71.46784255 -56.26295308 73.68363349 -58.22265625 75.96484375 C-62.5647977 80.97682768 -67.23981123 85.63595612 -71.9375 90.3125 C-72.79279297 91.17166016 -73.64808594 92.03082031 -74.52929688 92.91601562 C-78.9801497 97.36007844 -83.48550022 101.66624362 -88.28027344 105.73852539 C-90.04826919 107.29242399 -91.68235475 108.92797568 -93.3125 110.625 C-97.86951072 115.24345356 -102.94223639 119.19872502 -108 123.25 C-109.11422037 124.16552492 -110.22746831 125.08223434 -111.33984375 126 C-130.88900378 142.02987908 -151.75626911 156.18051369 -175 166.25 C-175.81339844 166.6109375 -176.62679687 166.971875 -177.46484375 167.34375 C-181.74565992 169.11852215 -185.3814201 169.71185799 -190 169.25 C-192 167.25 -192 167.25 -192.4375 164.3125 C-192.293125 163.301875 -192.14875 162.29125 -192 161.25 C-188.79488204 158.90079422 -185.33949692 157.5468251 -181.63476562 156.15942383 C-148.37038777 143.56771247 -119.4805073 118.60502595 -93.66796875 94.69921875 C-91.45768649 92.67016022 -89.21865825 90.69800735 -86.9375 88.75 C-79.70341555 82.46538914 -73.02256572 75.56423175 -66.80859375 68.27734375 C-63.83082576 64.93941375 -60.60695525 61.84958705 -57.42578125 58.70703125 C-54.66255407 55.90820694 -52.08409485 52.99595046 -49.54296875 49.99609375 C-48.10869168 48.37300046 -46.60684981 46.948366 -45 45.5 C-42.77226438 43.52126698 -42.77226438 43.52126698 -43.0859375 41.40625 C-44.3564073 38.40924432 -46.26883473 36.73515376 -48.625 34.5 C-52.33462248 30.90087692 -55.85467552 27.26908265 -59.19140625 23.32421875 C-60.56961863 21.74359073 -62.00527718 20.21285983 -63.46484375 18.70703125 C-64.30144531 17.83433594 -65.13804687 16.96164062 -66 16.0625 C-67.175625 14.86560547 -67.175625 14.86560547 -68.375 13.64453125 C-70 11.25 -70 11.25 -69.875 8.57421875 C-69 6.25 -69 6.25 -67 4.25 C-63.11295614 4.09451825 -61.08425631 4.39322492 -58.0078125 6.82421875 C-55.91418765 8.8974776 -53.94346027 11.03553929 -52 13.25 C-51.43539062 13.88421875 -50.87078125 14.5184375 -50.2890625 15.171875 C-49.16584899 16.4480143 -48.05010688 17.73076323 -46.94140625 19.01953125 C-43.04106971 23.500602 -39.00682836 27.86425629 -35 32.25 C-31.95113252 30.89872667 -29.96900294 29.42366501 -27.71484375 26.9765625 C-27.10664795 26.32187988 -26.49845215 25.66719727 -25.87182617 24.99267578 C-25.23349854 24.29384277 -24.5951709 23.59500977 -23.9375 22.875 C-23.27790283 22.1619873 -22.61830566 21.44897461 -21.9387207 20.71435547 C-19.95309676 18.56504554 -17.97561702 16.40850731 -16 14.25 C-14.88037141 13.03110019 -13.76059197 11.81233891 -12.640625 10.59375 C-10.78105003 8.56875363 -8.92622764 6.53976246 -7.07421875 4.5078125 C-3.17611241 0.26467603 -3.17611241 0.26467603 0 0 Z " fill="#1DA9A2" transform="translate(243,454.75)"/>
<path d="M0 0 C2.98046875 1.64453125 2.98046875 1.64453125 6.1875 3.8125 C7.42760354 4.63789468 8.6685341 5.46204776 9.91015625 6.28515625 C10.57031738 6.72617676 11.23047852 7.16719727 11.91064453 7.62158203 C15.60853329 10.06120343 19.37152816 12.39721588 23.125 14.75 C26.4196527 16.82863247 29.71053819 18.91316393 33 21 C33.91378418 21.57959473 34.82756836 22.15918945 35.76904297 22.75634766 C38.53817785 24.51791433 41.30112844 26.28879414 44.0625 28.0625 C44.92568848 28.61067383 45.78887695 29.15884766 46.67822266 29.72363281 C47.87584229 30.49658691 47.87584229 30.49658691 49.09765625 31.28515625 C49.80414307 31.73769775 50.51062988 32.19023926 51.23852539 32.65649414 C53 34 53 34 55 37 C55.2784729 39.41081238 55.2784729 39.41081238 55.31884766 42.29760742 C55.33871735 43.37850143 55.35858704 44.45939545 55.37905884 45.57304382 C55.39061005 46.73874405 55.40216125 47.90444427 55.4140625 49.10546875 C55.43342865 50.29981033 55.4527948 51.49415192 55.4727478 52.72468567 C55.53260616 56.54555076 55.57895454 60.36644587 55.625 64.1875 C55.66317397 66.77540388 55.70222535 69.36329499 55.7421875 71.95117188 C55.83831291 78.30066791 55.92334218 84.65024072 56 91 C56.77219879 90.67540802 57.54439758 90.35081604 58.33999634 90.01638794 C61.18782111 88.92823351 62.98239919 88.6757151 66 89 C68.04541016 89.91455078 68.04541016 89.91455078 70.0390625 91.1953125 C70.78542969 91.66453125 71.53179687 92.13375 72.30078125 92.6171875 C73.06777344 93.11476563 73.83476562 93.61234375 74.625 94.125 C83.16396225 99.57099326 91.90378457 104.44020485 100.9296875 109.03515625 C101.909375 109.53466797 102.8890625 110.03417969 103.8984375 110.54882812 C105.90302274 111.56822023 107.91091934 112.58112372 109.921875 113.58789062 C110.89382813 114.08611328 111.86578125 114.58433594 112.8671875 115.09765625 C113.73456543 115.53601807 114.60194336 115.97437988 115.49560547 116.42602539 C118.58961812 118.3705662 120.67298908 120.15652587 123 123 C123.48645808 125.91291458 123.66531473 128.23645583 123.61473083 131.1426239 C123.62041409 131.95811181 123.62609735 132.77359973 123.63195282 133.61379939 C123.6448639 136.34420893 123.62206013 139.07313834 123.59936523 141.8034668 C123.60122913 143.76152863 123.60526541 145.71958944 123.61131287 147.67764282 C123.62129587 152.9936304 123.6001052 158.30908566 123.57283282 163.62499595 C123.54902657 169.18275168 123.55194798 174.74049643 123.55152893 180.29829407 C123.54689981 189.62872346 123.5232475 198.95894889 123.48706055 208.28930664 C123.44528984 219.08836281 123.42774363 229.88723538 123.4244408 240.68636769 C123.42084624 252.17080187 123.40198095 263.65516965 123.37732053 275.1395762 C123.37108191 278.45551025 123.36745195 281.77143926 123.36428642 285.08737755 C123.35840144 290.28876892 123.34213205 295.49002807 123.31768227 300.69136429 C123.31021943 302.60462358 123.30616887 304.51789954 123.30570221 306.43117332 C123.30445162 309.03369585 123.2909629 311.63586539 123.27415466 314.23832703 C123.27656975 315.00338946 123.27898483 315.76845188 123.2814731 316.55669802 C123.22838744 321.77161256 123.22838744 321.77161256 121 324 C118.5625 324.375 118.5625 324.375 116 324 C113.07345534 320.9778923 112.62253146 318.78729755 112.60800171 314.65007019 C112.59690872 313.56290207 112.58581573 312.47573395 112.5743866 311.35562134 C112.57739273 310.166008 112.58039886 308.97639465 112.58349609 307.75073242 C112.57491074 306.49250168 112.56632538 305.23427094 112.55747986 303.93791199 C112.53408408 300.47171989 112.52899903 297.00570696 112.52682066 293.53944564 C112.52111296 289.85487704 112.49777131 286.17042011 112.47622681 282.48591614 C112.43757497 275.44360251 112.41348131 268.40132087 112.39510214 261.35892802 C112.36024257 248.22742437 112.29534827 235.09602759 112.23233795 221.96463394 C112.21788558 218.93626339 112.20433787 215.90789082 112.19155121 212.87951279 C112.06957071 184.24656464 111.62959424 155.62661808 111 127 C110.15743652 126.54113403 110.15743652 126.54113403 109.29785156 126.07299805 C95.84799329 118.74650831 82.41396796 111.39199942 69 104 C69.00276538 104.82698552 69.00553076 105.65397104 69.00837994 106.50601673 C69.0745778 126.61063655 69.12425036 146.71523764 69.15543652 166.81994343 C69.17091803 176.54235557 69.19203202 186.26469504 69.22631836 195.98706055 C69.25618148 204.45918376 69.27556566 212.93125436 69.28226548 221.40342873 C69.28618299 225.89110747 69.2954162 230.37863567 69.31719017 234.86626625 C69.33750662 239.08758193 69.34384367 243.30868463 69.33932304 247.53004456 C69.34015042 249.08168888 69.34614492 250.63334011 69.35761642 252.18494225 C69.37248533 254.29924357 69.36897485 256.41273479 69.36076355 258.52705383 C69.36352893 259.71155782 69.36629431 260.8960618 69.36914349 262.11645985 C69 265 69 265 67.63760853 266.91237164 C66 268 66 268 63.4375 267.875 C61 267 61 267 59 264 C58.75390434 261.10084248 58.75390434 261.10084248 58.75949097 257.48908997 C58.75778212 256.82499121 58.75607327 256.16089245 58.75431263 255.47666949 C58.75101332 253.24711392 58.76202847 251.01785802 58.77294922 248.78833008 C58.77351324 247.19184883 58.77319695 245.59536706 58.77206421 243.99888611 C58.77148933 239.66031389 58.78326543 235.32185179 58.79721212 230.98330522 C58.80969704 226.45092718 58.81088821 221.91854675 58.81326294 217.38615417 C58.8194843 208.80139921 58.83590399 200.21669505 58.85596192 191.63196248 C58.87830052 181.85941366 58.88930921 172.08686244 58.89935279 162.31429446 C58.92026965 142.20950126 58.95545837 122.10475383 59 102 C58.42145264 102.33209473 57.84290527 102.66418945 57.24682617 103.00634766 C36.01826886 115.18462459 36.01826886 115.18462459 27 120 C26.99120064 121.10421043 26.99120064 121.10421043 26.98222351 122.23072815 C26.92416878 129.18948105 26.85201925 136.14796271 26.76428509 143.10640049 C26.71967697 146.68329653 26.68040047 150.26008118 26.65356445 153.8371582 C26.62743513 157.29331807 26.5869665 160.7490471 26.53681374 164.20493889 C26.5121637 166.15618491 26.50212513 168.10759796 26.49235535 170.05897522 C26.38712569 176.44222064 26.13176948 181.37448159 23 187 C21.00045254 187.04254356 18.99958364 187.04080783 17 187 C16 186 16 186 15.87974548 183.14634705 C15.88196609 181.86949539 15.88418671 180.59264374 15.88647461 179.27709961 C15.88632858 178.5746965 15.88618256 177.8722934 15.8860321 177.14860535 C15.88673128 174.81648722 15.89452383 172.484448 15.90234375 170.15234375 C15.90420792 168.53951562 15.90563182 166.92668693 15.90663147 165.31385803 C15.91045677 161.06084643 15.92028715 156.80786876 15.93133545 152.55487061 C15.94154931 148.2182257 15.94612904 143.88157533 15.95117188 139.54492188 C15.96190941 131.02993231 15.97898597 122.51497037 16 114 C16.75408646 113.58193588 16.75408646 113.58193588 17.52340698 113.15542603 C19.84659354 111.86710591 22.16939204 110.57808761 24.4921875 109.2890625 C25.67784302 108.63176147 25.67784302 108.63176147 26.88745117 107.96118164 C33.96029751 104.035045 40.9889229 100.03531447 48 96 C47.51104248 95.41516846 47.02208496 94.83033691 46.51831055 94.2277832 C44.22031406 89.34246217 44.63128721 84.68634689 44.70703125 79.35546875 C44.71127609 78.2305452 44.71552094 77.10562164 44.71989441 75.9466095 C44.7366631 72.35999438 44.77431312 68.77394479 44.8125 65.1875 C44.82754913 62.75326333 44.84123713 60.31901784 44.85351562 57.88476562 C44.88656075 51.92298471 44.93674272 45.96153277 45 40 C44.2186821 39.69380234 43.4373642 39.38760468 42.63237 39.0721283 C40.1738775 38.07081793 38.03616935 36.93927696 35.76953125 35.56640625 C34.96451172 35.08107422 34.15949219 34.59574219 33.33007812 34.09570312 C32.49927734 33.58974609 31.66847656 33.08378906 30.8125 32.5625 C30.03197266 32.09134766 29.25144531 31.62019531 28.44726562 31.13476562 C22.49467206 27.53519728 16.56305111 23.9010686 10.62768555 20.27319336 C9.79604637 19.76491753 8.9644072 19.25664169 8.10756683 18.73296356 C6.07168779 17.48868071 4.03583277 16.24435856 2 15 C2.00092179 15.96797988 2.00184359 16.93595976 2.00279331 17.93327236 C2.02496026 41.45039806 2.04141023 64.96752241 2.05181217 88.48465633 C2.05697574 99.8572063 2.0640196 111.22974938 2.07543945 122.60229492 C2.08538443 132.51076864 2.09185298 142.41923737 2.09408849 152.32771593 C2.09539592 157.57762905 2.09848376 162.82752789 2.10573006 168.07743645 C2.11248734 173.01276996 2.11461756 177.94808325 2.11310768 182.88342094 C2.11338414 184.7003541 2.11539099 186.5172879 2.11920547 188.33421707 C2.12413818 190.80368289 2.12299987 193.27307106 2.12025452 195.74253845 C2.12316736 196.47112389 2.1260802 197.19970933 2.12908131 197.95037311 C2.11412121 202.88587879 2.11412121 202.88587879 1 204 C-1.9375 204.1875 -1.9375 204.1875 -5 204 C-7.87367244 201.12632756 -7.31557782 199.03433659 -7.41062927 195.00691223 C-7.43934834 193.93076764 -7.43934834 193.93076764 -7.4686476 192.83288276 C-7.52898714 190.44836057 -7.57440441 188.06382207 -7.61889648 185.67895508 C-7.65659137 183.998249 -7.69464692 182.31755097 -7.73304653 180.63686085 C-8.09343932 163.94380229 -8.13177432 147.25138074 -8.10139394 130.55520225 C-8.09496301 126.39404725 -8.09454155 122.23289076 -8.09336853 118.07173157 C-8.09031145 110.26019438 -8.08217748 102.44867188 -8.07201904 94.63714105 C-8.06067865 85.71505217 -8.05530322 76.79296243 -8.05032361 67.87086809 C-8.03998721 49.58057052 -8.02250198 31.29028646 -8 13 C-11.498083 15.32269994 -14.95746114 17.65701964 -18.3203125 20.171875 C-19.1040625 20.75453125 -19.8878125 21.3371875 -20.6953125 21.9375 C-22.29255804 23.12901436 -23.88893867 24.3216892 -25.484375 25.515625 C-26.27585938 26.1034375 -27.06734375 26.69125 -27.8828125 27.296875 C-28.6479718 27.87486343 -29.4131311 28.45285187 -30.20147705 29.0483551 C-33 31 -33 31 -36.07830811 32.63414001 C-42.415096 36.05717106 -42.415096 36.05717106 -46.07772827 41.9703064 C-46.45184291 45.55942831 -46.45507668 48.97601294 -46.3203125 52.58203125 C-46.32103557 54.55440367 -46.32176421 56.5267761 -46.32282829 58.49914837 C-46.30887379 61.24207141 -46.23916384 63.98258435 -46.17095947 66.72460938 C-46.07954561 70.87744505 -46.06470927 75.03112268 -46.04510307 79.18481731 C-46.02938045 82.41422643 -45.99614367 85.64101125 -45.92874146 88.86982727 C-45.90987885 90.02500351 -45.89101624 91.18017975 -45.87158203 92.37036133 C-45.83727585 93.89636711 -45.83727585 93.89636711 -45.80227661 95.45320129 C-46 98 -46 98 -48 101 C-50.31 100.67 -52.62 100.34 -55 100 C-56.06104319 96.81687042 -56.152348 94.48525042 -56.19287109 91.13916016 C-56.20893402 89.93425934 -56.22499695 88.72935852 -56.24154663 87.48794556 C-56.28596854 81.98740857 -56.32748295 76.48700176 -56.35009766 70.98632812 C-56.36344436 68.0820369 -56.39131326 65.17844708 -56.43212891 62.27441406 C-56.4814745 58.76306548 -56.50622009 55.25235357 -56.51332474 51.74067307 C-56.52328493 49.75694895 -56.55752084 47.77339467 -56.59213257 45.78994751 C-56.57096234 36.7930508 -56.57096234 36.7930508 -53.71972656 32.83276367 C-52.37346191 31.92554565 -52.37346191 31.92554565 -51 31 C-49.98752197 30.19115356 -49.98752197 30.19115356 -48.95458984 29.3659668 C-48.29668457 28.89843994 -47.6387793 28.43091309 -46.9609375 27.94921875 C-46.22133789 27.41981689 -45.48173828 26.89041504 -44.71972656 26.3449707 C-43.9459668 25.79800537 -43.17220703 25.25104004 -42.375 24.6875 C-40.75250539 23.52878413 -39.13010916 22.3699305 -37.5078125 21.2109375 C-36.72825195 20.65631836 -35.94869141 20.10169922 -35.14550781 19.53027344 C-32.49976955 17.64321297 -29.873094 15.73088218 -27.25 13.8125 C-22.99097651 10.71261976 -18.7186369 7.63173746 -14.4375 4.5625 C-13.82874023 4.12462158 -13.21998047 3.68674316 -12.59277344 3.2355957 C-7.70424244 -0.26165882 -5.96929385 -1.46551526 0 0 Z " fill="#1DA9A2" transform="translate(213,261)"/>
<path d="M0 0 C8.89887275 5.94861584 15.47809641 12.64627729 17.79267883 23.33380127 C19.02855974 31.23073989 19.44827298 38.88498469 19.3984375 46.87109375 C19.39797928 48.09652893 19.39752106 49.32196411 19.39704895 50.58453369 C19.39405088 53.15255716 19.38623901 55.72057922 19.3737793 58.28857422 C19.35545168 62.20286546 19.35327058 66.11692016 19.35351562 70.03125 C19.34860164 72.54036661 19.34277384 75.04948164 19.3359375 77.55859375 C19.33482468 78.71816589 19.33371185 79.87773804 19.33256531 81.07244873 C19.25793891 93.9223247 18.67736411 106.8278793 9.37109375 116.66015625 C-1.75034988 125.69139948 -14.00718959 126.368878 -27.63671875 125.2109375 C-36.10974089 123.71835887 -42.9362109 118.22719035 -48.328125 111.734375 C-51.02569773 107.63546579 -52.47810476 103.13700725 -53.83203125 98.44921875 C-54.00934784 97.85669815 -54.18666443 97.26417755 -54.36935425 96.65370178 C-54.93761574 93.94614813 -54.9592752 91.42939899 -54.96142578 88.66186523 C-54.96615402 86.91370766 -54.96615402 86.91370766 -54.97097778 85.13023376 C-54.96895355 83.87295975 -54.96692932 82.61568573 -54.96484375 81.3203125 C-54.96580048 80.020298 -54.9667572 78.72028351 -54.96774292 77.38087463 C-54.96921663 74.6262188 -54.96707825 71.87159541 -54.96240234 69.11694336 C-54.95674458 65.61610248 -54.95996083 62.11533895 -54.96597481 58.614501 C-54.97050086 55.24559899 -54.96731034 51.87671669 -54.96484375 48.5078125 C-54.96686798 47.2647081 -54.96889221 46.0216037 -54.97097778 44.74082947 C-54.93437217 30.95051182 -54.62194034 18.49608446 -45.66796875 7.26953125 C-34.75539606 -3.55016848 -13.90111253 -7.01206561 0 0 Z " fill="#1DA9A1" transform="translate(728.83203125,408.55078125)"/>
<path d="M0 0 C44.79918864 0 44.79918864 0 56.21484375 9.92578125 C63.32273985 17.66482246 64.52535644 24.57483894 64.5 34.8125 C64.52835937 35.84181641 64.55671875 36.87113281 64.5859375 37.93164062 C64.60643402 46.03288846 62.88725071 52.97415375 57.1237793 58.94311523 C55.4791247 60.37168988 53.7468745 61.69840723 52 63 C52.86625 63.515625 53.7325 64.03125 54.625 64.5625 C61.07118489 68.90567422 65.03626927 74.43388436 67 82 C68.1837497 91.5064487 69.01882746 103.76831141 63.6796875 112.09375 C56.70863761 120.00508104 49.30236528 123.28293912 39 125 C26.13 125 13.26 125 0 125 C0 83.75 0 42.5 0 0 Z " fill="#1DA8A1" transform="translate(392,407)"/>
<path d="M0 0 C46.37647532 0 46.37647532 0 57.02734375 9.0078125 C66.57474636 18.64974385 67.49447661 28.51567409 67.50195312 41.52294922 C67.31401659 51.29707301 65.86409512 57.95575321 58.890625 65.1875 C56.99022206 66.90757274 55.04643068 68.46056791 53 70 C52.34 70.66 51.68 71.32 51 72 C51.32162109 72.76852295 51.64324219 73.5370459 51.97460938 74.32885742 C62.81434282 100.2703807 62.81434282 100.2703807 67.75 113.125 C68.08451172 113.98762451 68.41902344 114.85024902 68.76367188 115.73901367 C69.06337891 116.52896729 69.36308594 117.3189209 69.671875 118.1328125 C69.9306543 118.81230957 70.18943359 119.49180664 70.45605469 120.19189453 C71 122 71 122 71 125 C64.07 125 57.14 125 50 125 C49.278125 122.9375 48.55625 120.875 47.8125 118.75 C45.88028393 113.30632254 43.79444271 107.95830246 41.53515625 102.640625 C39.3788353 97.52690712 37.28549168 92.38787207 35.1875 87.25 C34.57310059 85.74663086 34.57310059 85.74663086 33.94628906 84.21289062 C32.9638321 81.80874108 31.98186452 79.40439156 31 77 C27.04 76.67 23.08 76.34 19 76 C19 92.17 19 108.34 19 125 C12.73 125 6.46 125 0 125 C0 83.75 0 42.5 0 0 Z " fill="#1DA8A1" transform="translate(767,407)"/>
<path d="M0 0 C6.27 0 12.54 0 19 0 C19.70341231 14.85269285 20.09189033 29.68382267 20.2109375 44.55078125 C20.22524115 46.17455144 20.23966641 47.79832057 20.25421143 49.42208862 C20.31252484 56.092956 20.36852364 62.76376635 20.40136719 69.43481445 C20.42229442 73.58223272 20.45750779 77.72931864 20.50212479 81.87654686 C20.51621719 83.43817455 20.52499184 84.99986021 20.52817917 86.56154823 C20.53308485 88.72539316 20.55620805 90.88833984 20.58349609 93.05200195 C20.59562637 94.88961845 20.59562637 94.88961845 20.60800171 96.76435852 C21.03439123 100.28387293 21.91122281 102.16765928 24 105 C28.57194345 108.46871362 33.29869632 109.72562047 39 109 C44.68912416 107.01676251 44.68912416 107.01676251 49 103 C49.90537361 100.28387916 50.13166062 98.68076304 50.15148926 95.88754272 C50.16400475 94.6340226 50.16400475 94.6340226 50.17677307 93.35517883 C50.18095749 92.44181259 50.18514191 91.52844635 50.18945312 90.58740234 C50.19774643 89.62296707 50.20603973 88.6585318 50.21458435 87.66487122 C50.23198893 85.56959045 50.24715463 83.47429017 50.26036072 81.37897873 C50.28136172 78.06832502 50.30838485 74.75776983 50.33703613 71.44717407 C50.4069219 63.22697833 50.46636208 55.00671289 50.52606201 46.78643799 C50.57689821 39.8389427 50.63168506 32.89150106 50.69187927 25.94408035 C50.71855063 22.67289042 50.73930412 19.40169575 50.7598877 16.13046265 C50.77648201 14.13824217 50.79335308 12.14602398 50.81054688 10.15380859 C50.81473129 9.23639389 50.81891571 8.31897919 50.82322693 7.37376404 C50.8861523 1.1138477 50.8861523 1.1138477 52 0 C53.41570123 -0.08651611 54.835595 -0.10704904 56.25390625 -0.09765625 C57.53491211 -0.09282227 57.53491211 -0.09282227 58.84179688 -0.08789062 C59.73962891 -0.07951172 60.63746094 -0.07113281 61.5625 -0.0625 C62.46419922 -0.05798828 63.36589844 -0.05347656 64.29492188 -0.04882812 C66.53001314 -0.03700225 68.76497437 -0.0205222 71 0 C71.09285115 13.25676461 71.16384191 26.51345131 71.20724869 39.77047539 C71.22808616 45.92685339 71.25633405 52.08300822 71.30175781 58.23925781 C71.34535188 64.18502102 71.36916597 70.13057012 71.37950897 76.07648087 C71.38687597 78.34019463 71.40126186 80.60389724 71.42292023 82.86751938 C71.45213387 86.04848932 71.45594843 89.22858458 71.45410156 92.40966797 C71.46848267 93.33684128 71.48286377 94.26401459 71.49768066 95.21928406 C71.43856753 104.68404439 68.35614828 112.43758092 61.85546875 119.3125 C55.04352621 125.50778248 46.85539453 127.38483489 37.8125 127.3125 C36.69983765 127.30404053 36.69983765 127.30404053 35.56469727 127.29541016 C23.188136 127.0253372 14.9169352 123.9169352 6.1875 115.1875 C1.33514212 108.11692137 0.55467478 100.92370243 0.56762695 92.52319336 C0.5574353 91.51726135 0.54724365 90.51132935 0.53674316 89.47491455 C0.50676659 86.17983316 0.4973706 82.88504322 0.48828125 79.58984375 C0.47142322 77.29341172 0.45327147 74.99698885 0.43388367 72.70057678 C0.38649987 66.67879093 0.35661526 60.65704226 0.33044434 54.63513184 C0.30058019 48.48128929 0.25406997 42.32757465 0.20898438 36.17382812 C0.12308331 24.11593782 0.05721912 12.05806056 0 0 Z " fill="#1EA7A0" transform="translate(474,407)"/>
<path d="M0 0 C2.59863281 1.12646484 2.59863281 1.12646484 5.203125 2.7109375 C6.17499756 3.29166016 7.14687012 3.87238281 8.14819336 4.47070312 C9.68358765 5.41333008 9.68358765 5.41333008 11.25 6.375 C13.4013537 7.66571414 15.55370719 8.95476323 17.70703125 10.2421875 C18.77002441 10.88124023 19.83301758 11.52029297 20.92822266 12.17871094 C25.21161536 14.71837948 29.5654244 17.11740388 33.9375 19.5 C48.47425661 27.47425661 48.47425661 27.47425661 52 31 C52.0991056 32.86635788 52.12799261 34.73648194 52.12939453 36.60546875 C52.13254669 37.80341064 52.13569885 39.00135254 52.13894653 40.2355957 C52.13591019 42.19178833 52.13591019 42.19178833 52.1328125 44.1875 C52.1334856 45.52889015 52.13445568 46.87028019 52.13571167 48.21166992 C52.13718836 51.02621621 52.13503504 53.84073082 52.13037109 56.65527344 C52.12467381 60.27040631 52.12795297 63.88546495 52.13394356 67.50059509 C52.13754997 70.27144942 52.13641022 73.04228602 52.13381577 75.81314087 C52.13282033 77.79689583 52.13586741 79.78065147 52.13894653 81.7644043 C52.13421829 83.56131714 52.13421829 83.56131714 52.12939453 85.39453125 C52.12859894 86.45518799 52.12780334 87.51584473 52.12698364 88.60864258 C52 91 52 91 51 92 C48.625 92.3125 48.625 92.3125 46 92 C43.09848315 89.01011249 42.62958313 86.87058385 42.65942383 82.77246094 C42.65965042 81.73168396 42.65987701 80.69090698 42.66011047 79.61859131 C42.67559433 78.50179993 42.69107819 77.38500854 42.70703125 76.234375 C42.71127609 75.08584045 42.71552094 73.93730591 42.71989441 72.75396729 C42.73668667 69.0857397 42.77434102 65.41806153 42.8125 61.75 C42.82754608 59.26302877 42.84123461 56.77604892 42.85351562 54.2890625 C42.88659204 48.19252088 42.93679744 42.09629969 43 36 C42.0826709 35.70810791 41.1653418 35.41621582 40.22021484 35.11547852 C36.42458105 33.80067557 33.08373526 31.944304 29.625 29.9375 C28.21883012 29.13397435 26.81257753 28.33059345 25.40625 27.52734375 C24.68566406 27.11339355 23.96507812 26.69944336 23.22265625 26.27294922 C19.5351943 24.16108338 15.82961712 22.08157352 12.125 20 C11.44131348 19.61448975 10.75762695 19.22897949 10.05322266 18.83178711 C6.55785613 16.85763041 6.55785613 16.85763041 3 15 C3.00184359 15.65268042 3.00368717 16.30536083 3.00558662 16.97781944 C3.04971272 32.84274037 3.08283073 48.70764001 3.10362434 64.57260704 C3.11394668 72.24471614 3.12802522 79.91678434 3.15087891 87.58886719 C3.17078357 94.2741243 3.18370947 100.95935179 3.18817699 107.6446377 C3.19078935 111.18601498 3.19694922 114.72730751 3.21146011 118.26865768 C3.22750966 122.21737025 3.22798157 126.16599913 3.22705078 130.11474609 C3.23424133 131.29509933 3.24143188 132.47545258 3.24884033 133.6915741 C3.246091 134.76292099 3.24334167 135.83426788 3.24050903 136.93807983 C3.24235262 137.87277792 3.24419621 138.80747601 3.24609566 139.77049828 C3 142 3 142 1 144 C-1.64 144 -4.28 144 -7 144 C-7 101.1 -7 58.2 -7 14 C-13.8192919 17.71961376 -20.36439327 21.37033125 -26.8125 25.625 C-27.52341797 26.0890625 -28.23433594 26.553125 -28.96679688 27.03125 C-32.89288021 29.59551326 -32.89288021 29.59551326 -36.77490234 32.22558594 C-40.80231695 35 -40.80231695 35 -43 35 C-42.83865067 36.13390671 -42.67730133 37.26781342 -42.51106262 38.43608093 C-41.68537505 45.93734139 -41.83512606 53.48607797 -41.82299805 61.02270508 C-41.81672407 62.74165989 -41.81007645 64.46061338 -41.80308533 66.17956543 C-41.7821775 71.79287799 -41.77170479 77.40619046 -41.76171875 83.01953125 C-41.75766812 84.95635174 -41.75355111 86.89317209 -41.74936867 88.82999229 C-41.730357 97.91969311 -41.71610994 107.00938595 -41.7077567 116.0991028 C-41.6979579 126.58679126 -41.67155304 137.07427015 -41.63125581 147.5618847 C-41.60114145 155.67756227 -41.58629283 163.79317951 -41.58297569 171.90891188 C-41.5806226 176.75366311 -41.5716263 181.59818937 -41.54651451 186.44288063 C-41.52330647 190.992683 -41.51897102 195.54211096 -41.52927589 200.09195709 C-41.52977291 201.76251913 -41.52340377 203.4330992 -41.50971985 205.10360527 C-41.49210111 207.38147916 -41.49905565 209.65799396 -41.51225281 211.93586731 C-41.50986445 213.21100095 -41.5074761 214.48613459 -41.50501537 215.79990864 C-42.08717655 219.56359918 -42.96890813 220.76226099 -46 223 C-48.6875 223.3125 -48.6875 223.3125 -51 223 C-52.94862138 221.05137862 -52.17602779 217.31686889 -52.19186401 214.65556335 C-52.20032982 213.87757269 -52.20879563 213.09958203 -52.21751797 212.29801589 C-52.24474982 209.67094988 -52.26472279 207.0438788 -52.28466797 204.41674805 C-52.3024197 202.5413377 -52.32054043 200.66593081 -52.33900452 198.79052734 C-52.39771214 192.61431284 -52.4454686 186.43803383 -52.4921875 180.26171875 C-52.50869179 178.13918355 -52.52521328 176.01664848 -52.54175186 173.89411354 C-52.60970867 165.06783642 -52.6747607 156.24154588 -52.73234367 147.41519451 C-52.81510059 134.74703755 -52.91485943 122.07927772 -53.03843391 109.41145104 C-53.12385693 100.51471854 -53.19013877 91.61796846 -53.24207985 82.72097808 C-53.27363104 77.4020388 -53.31365882 72.08347319 -53.37401962 66.76477623 C-53.43035697 61.76208363 -53.4630571 56.75979683 -53.47743034 51.75681305 C-53.48684763 49.91849824 -53.50489477 48.0802048 -53.53211021 46.24206734 C-53.56791485 43.73598431 -53.57290108 41.23168093 -53.57003784 38.72538757 C-53.58781088 37.99454993 -53.60558391 37.2637123 -53.62389553 36.51072806 C-53.5841341 32.73752012 -53.30843568 31.30671475 -50.58604622 28.59951496 C-49.30595334 27.80775506 -49.30595334 27.80775506 -48 27 C-47.35756348 26.56518311 -46.71512695 26.13036621 -46.05322266 25.68237305 C-45.4297998 25.29605713 -44.80637695 24.90974121 -44.1640625 24.51171875 C-43.44049561 24.05958008 -42.71692871 23.60744141 -41.97143555 23.14160156 C-41.19711182 22.66174805 -40.42278809 22.18189453 -39.625 21.6875 C-33.97147277 18.17074337 -28.36963777 14.59977101 -22.84765625 10.87890625 C-21.31020752 9.84987183 -21.31020752 9.84987183 -19.74169922 8.80004883 C-17.7345868 7.45282876 -15.73463118 6.09487306 -13.74267578 4.7253418 C-12.82083496 4.10957275 -11.89899414 3.49380371 -10.94921875 2.859375 C-10.13799561 2.30733398 -9.32677246 1.75529297 -8.4909668 1.18652344 C-5.37949413 -0.29556586 -3.41549983 -0.39427692 0 0 Z " fill="#1DAAA3" transform="translate(144,357)"/>
<path d="M0 0 C6.93 0 13.86 0 21 0 C23.40583928 5.41313838 25.75368715 10.75719648 27.9375 16.25 C28.18983398 16.88405762 28.44216797 17.51811523 28.70214844 18.17138672 C30.81552771 23.49726158 32.87867499 28.84212847 34.921875 34.1953125 C35.9255527 36.80632913 36.95457944 39.40545625 38 42 C41.28737838 35.71596378 43.91585319 29.31172246 46.4375 22.6875 C49.37213052 14.9898566 52.5295451 7.47341347 56 0 C62.93 0 69.86 0 77 0 C75.2675 3.83625 75.2675 3.83625 73.5 7.75 C70.28033057 14.89082757 67.08820542 22.04369922 63.91015625 29.203125 C63.55355927 30.00635193 63.19696228 30.80957886 62.82955933 31.637146 C61.0216397 35.7102548 59.21513257 39.78398451 57.41015625 43.85839844 C56.73309496 45.3847754 56.05601254 46.91114299 55.37890625 48.4375 C55.06776382 49.14094543 54.7566214 49.84439087 54.43605042 50.56915283 C52.09446998 55.84441517 52.09446998 55.84441517 50.72631836 58.09765625 C49.28208288 61.88033955 50.71164324 65.2949558 52.18164062 68.88916016 C52.66826172 69.88737793 53.15488281 70.8855957 53.65625 71.9140625 C55.95303006 76.74470075 58.14940717 81.59115824 60.21875 86.5234375 C60.48800293 87.16516907 60.75725586 87.80690063 61.03466797 88.46807861 C61.58311249 89.77879086 62.13063464 91.08988943 62.67724609 92.40136719 C63.49695159 94.36768744 64.32044525 96.33238717 65.14453125 98.296875 C68.85574584 107.16191057 72.44918307 116.06948152 76 125 C69.4 125 62.8 125 56 125 C49.90129722 111.04046924 43.87191989 97.05652331 38 83 C35.86139912 85.13860088 35.16233706 86.66826218 34.01171875 89.4375 C33.63466797 90.33339844 33.25761719 91.22929687 32.86914062 92.15234375 C32.47919922 93.09207031 32.08925781 94.03179687 31.6875 95 C29.02500195 101.39543826 26.23859049 107.65988353 23.09545898 113.83496094 C21.88192167 116.23336719 20.76064729 118.66073584 19.6875 121.125 C19.130625 122.40375 18.57375 123.6825 18 125 C12.06 125 6.12 125 0 125 C0.74900831 121.25495845 1.43877714 118.66103516 2.92578125 115.26953125 C3.31056641 114.38330078 3.69535156 113.49707031 4.09179688 112.58398438 C4.49462891 111.66939453 4.89746094 110.75480469 5.3125 109.8125 C8.00867453 103.64283537 10.64712804 97.46413673 13.12670898 91.20385742 C14.18193883 88.54085497 15.2721866 85.8936236 16.375 83.25 C16.7875 82.25226563 17.2 81.25453125 17.625 80.2265625 C18.61311097 77.90787029 19.62810754 75.62130109 20.6875 73.3359375 C20.96803223 72.7181543 21.24856445 72.10037109 21.53759766 71.46386719 C22.33481226 69.713249 23.14747742 67.96969125 23.9609375 66.2265625 C26.10426391 59.57096997 22.82945926 53.76220013 20.17578125 47.68359375 C19.79189743 46.7906813 19.40801361 45.89776886 19.01249695 44.97779846 C17.78535759 42.12831401 16.54888067 39.28298487 15.3125 36.4375 C14.5000789 34.55167867 13.68822446 32.66561311 12.87695312 30.77929688 C9.04166043 21.88425077 5.16064441 13.02706388 0.98510742 4.28540039 C0 2 0 2 0 0 Z " fill="#1DA8A1" transform="translate(890,407)"/>
<path d="M0 0 C6.27 0 12.54 0 19 0 C19 35.64 19 71.28 19 108 C31.54 108 44.08 108 57 108 C57 113.61 57 119.22 57 125 C38.19 125 19.38 125 0 125 C0 83.75 0 42.5 0 0 Z " fill="#1DAAA3" transform="translate(605,407)"/>
<path d="M0 0 C5.24830866 2.98433238 7.11460646 6.03222988 8.77197266 11.71875 C10.41338405 17.96228411 10.62175223 23.88461723 10.5859375 30.3125 C10.58880768 31.46943359 10.59167786 32.62636719 10.59463501 33.81835938 C10.59666385 36.24870294 10.59121729 38.67906327 10.57861328 41.109375 C10.56254369 44.80245927 10.57850346 48.49444926 10.59765625 52.1875 C10.59567361 54.56250238 10.59182951 56.9375041 10.5859375 59.3125 C10.59504654 60.94735352 10.59504654 60.94735352 10.6043396 62.61523438 C10.53097558 70.72074766 9.9069631 81.52109059 4.1875 87.8125 C-1.3519529 91.23359361 -6.36409957 92.73370006 -12.8125 91.8125 C-17.27076754 89.9281603 -20.15060669 87.85871846 -22.75 83.75 C-24.39880349 79.1915433 -24.94349731 75.48261394 -24.97363281 70.61035156 C-24.98804413 68.72754486 -24.98804413 68.72754486 -25.00274658 66.80670166 C-25.00759573 65.43884463 -25.01187427 64.07098548 -25.015625 62.703125 C-25.02138246 61.29311116 -25.02714011 59.88309733 -25.03289795 58.4730835 C-25.04339184 55.51753375 -25.04924466 52.56201106 -25.05273438 49.60644531 C-25.05820799 45.83613591 -25.08221819 42.06618965 -25.11070633 38.2959938 C-25.12941752 35.38245633 -25.13454285 32.46900475 -25.13607025 29.55541229 C-25.13907951 28.16646088 -25.14704911 26.77751035 -25.16025543 25.38861847 C-25.30826311 8.62273269 -25.30826311 8.62273269 -20.39581299 3.26837158 C-14.23563987 -2.15279923 -7.56995664 -2.35785535 0 0 Z " fill="#363A40" transform="translate(718.8125,425.1875)"/>
<path d="M0 0 C3.65797253 0.45265754 5.29057694 1.93785095 7.8125 4.5625 C8.43769531 5.20316406 9.06289062 5.84382812 9.70703125 6.50390625 C11.58177186 8.54472269 13.3954838 10.61542922 15.203125 12.71484375 C19.24304344 17.35298816 23.56560888 21.67681033 27.9375 26 C28.71673828 26.77472656 29.49597656 27.54945313 30.29882812 28.34765625 C32.1969242 30.23410757 34.09733149 32.11816245 36 34 C34.67624661 36.92293008 33.23343726 39.02829096 30.99072266 41.31567383 C30.38314117 41.93924271 29.77555969 42.56281158 29.14956665 43.20527649 C28.49435028 43.86585556 27.83913391 44.52643463 27.1640625 45.20703125 C26.4883017 45.89182053 25.81254089 46.5766098 25.11630249 47.28215027 C23.68834807 48.72459077 22.25758369 50.16425421 20.82421875 51.60131836 C18.6277252 53.80975997 16.4505715 56.03616401 14.2734375 58.26367188 C12.88396432 59.66260331 11.49337666 61.06042886 10.1015625 62.45703125 C9.45039459 63.12773148 8.79922668 63.7984317 8.12832642 64.48945618 C7.51444061 65.09726425 6.90055481 65.70507233 6.26806641 66.33129883 C5.73226959 66.87216629 5.19647278 67.41303375 4.6444397 67.97029114 C3 69 3 69 0.90838623 68.74772644 C-6.62317827 65.79677771 -13.03342693 57.11819961 -18.625 51.5 C-19.44484375 50.68402344 -20.2646875 49.86804688 -21.109375 49.02734375 C-25.62182487 44.50763913 -29.91890531 39.91316254 -34 35 C-28.26113563 28.15138543 -22.08929693 21.79862902 -15.80419922 15.45410156 C-14.50912737 14.14231277 -13.21946639 12.82516172 -11.93505859 11.50292969 C-10.07015421 9.583579 -8.1896159 7.68091401 -6.3046875 5.78125 C-5.44518997 4.88774841 -5.44518997 4.88774841 -4.56832886 3.97619629 C-2.92919922 2.34570312 -2.92919922 2.34570312 0 0 Z " fill="#363A40" transform="translate(207,554)"/>
<path d="M0 0 C6.6 0 13.2 0 20 0 C20 41.25 20 82.5 20 125 C13.73 125 7.46 125 1 125 C-0.06424574 111.1832179 -0.12935669 97.44668702 -0.09765625 83.59375 C-0.09578722 81.17281117 -0.09436561 78.75187196 -0.09336853 76.33093262 C-0.08958152 70.01164677 -0.07978457 63.69238454 -0.06866455 57.37310791 C-0.05836764 50.90368977 -0.0538533 44.43426775 -0.04882812 37.96484375 C-0.03815824 25.30988388 -0.02059312 12.65494761 0 0 Z " fill="#1DA7A0" transform="translate(564,407)"/>
<path d="M0 0 C5.94 0 11.88 0 18 0 C18 41.25 18 82.5 18 125 C12.06 125 6.12 125 0 125 C0 83.75 0 42.5 0 0 Z " fill="#1CAAA3" transform="translate(855,407)"/>
<path d="M0 0 C2.06240656 -0.03057374 4.12494562 -0.05228518 6.1875 -0.0703125 C7.91033203 -0.08989014 7.91033203 -0.08989014 9.66796875 -0.10986328 C14.87401559 0.06178979 19.66477355 0.89492808 23.625 4.46484375 C28.19004808 9.76911837 28.23717373 13.50354881 28.3125 20.1875 C28.34150391 21.02603516 28.37050781 21.86457031 28.40039062 22.72851562 C28.46082378 28.68350622 27.57783801 32.18415575 24 37 C17.29800584 41.92466974 8.93113244 41.44752471 1 41 C-0.16281933 32.29786393 -0.11579895 23.63211849 -0.0625 14.875 C-0.05747252 13.42708489 -0.05291183 11.97916808 -0.04882812 10.53125 C-0.03792705 7.02079741 -0.02073202 3.51040993 0 0 Z " fill="#363A40" transform="translate(786,425)"/>
<path d="M0 0 C18.84027778 0 18.84027778 0 23.77734375 4.6875 C28.2277953 9.71389234 29.2222938 13.03865879 29.3125 19.75 C29.34150391 20.45382812 29.37050781 21.15765625 29.40039062 21.8828125 C29.46266601 27.03729833 28.4034287 29.92201787 25 34 C16.52478114 39.12044473 10.65952853 38 0 38 C0 25.46 0 12.92 0 0 Z " fill="#37383E" transform="translate(412,477)"/>
<path d="M0 0 C16.944 0 16.944 0 21.4921875 4.46484375 C25.62246628 9.23683251 26.19630936 12.01239732 26.3125 18.25 C26.34988281 19.55453125 26.38726562 20.8590625 26.42578125 22.203125 C25.93480526 26.58136956 24.79739011 28.63914272 22 32 C14.40600434 36.21888648 9.49525626 35 0 35 C0 23.45 0 11.9 0 0 Z " fill="#36393F" transform="translate(412,425)"/>
<path d="M0 0 C1.98 0 3.96 0 6 0 C6 4.95 6 9.9 6 15 C7.32 14.01 8.64 13.02 10 12 C14.24649943 11.45953644 16.25823192 11.51623821 19.875 13.875 C23.43635246 17.43635246 23.24377082 20.5060392 23.3125 25.3125 C23.34988281 26.62863281 23.38726563 27.94476562 23.42578125 29.30078125 C22.93895718 33.53034448 22.08292351 35.11719609 19 38 C16.35114265 39.09535254 13.84979987 39.22008355 11 39 C8 37.5625 8 37.5625 6 36 C6 36.66 6 37.32 6 38 C4.02 38 2.04 38 0 38 C0 25.46 0 12.92 0 0 Z " fill="#1CAFA5" transform="translate(736,564)"/>
<path d="M0 0 C1.98 0 3.96 0 6 0 C6 4.62 6 9.24 6 14 C7.32 13.01 8.64 12.02 10 11 C14.24649943 10.45953644 16.25823192 10.51623821 19.875 12.875 C23.4251692 16.4251692 23.18798073 18.87680008 23.25 23.8125 C23.27578125 25.03582031 23.3015625 26.25914062 23.328125 27.51953125 C22.97849733 31.22808187 22.20473257 33.04414531 20 36 C17.26652449 38.14773076 15.97464626 37.99822079 12.4375 37.75 C9 37 9 37 6 35 C6 35.66 6 36.32 6 37 C4.02 37 2.04 37 0 37 C0 24.79 0 12.58 0 0 Z " fill="#1BB5AA" transform="translate(439,565)"/>
<path d="M0 0 C1.98 0 3.96 0 6 0 C6 12.54 6 25.08 6 38 C4.35 38 2.7 38 1 38 C1 37.01 1 36.02 1 35 C0.34 35 -0.32 35 -1 35 C-1 35.66 -1 36.32 -1 37 C-3.70367569 38.83849947 -5.16625394 38.99703118 -8.5 38.9375 C-12.6567082 37.82409602 -13.73419426 36.57300136 -16 33 C-17.9709126 29.0581748 -17.45444893 24.29605722 -17 20 C-15.64319323 16.7269448 -13.49650143 14.49650143 -11 12 C-6.35899787 11.65622206 -4.23929615 11.88035192 0 14 C0 9.38 0 4.76 0 0 Z " fill="#1CB5AA" transform="translate(888,564)"/>
<path d="M0 0 C3.33877681 1.33079993 5.23354309 2.8564968 7 6 C8.02100533 11.55567727 8.30284457 17.68299773 5.3125 22.6875 C1.79932478 26.20067522 -0.59336291 26.8744074 -5.5 27.3125 C-10.0571562 26.90561105 -12.49588018 25.59904 -15.609375 22.2890625 C-18.38738482 17.71627105 -17.70231082 12.1460229 -17 7 C-13.43584083 -0.26032423 -7.38034485 -1.07790431 0 0 Z " fill="#1CB2A7" transform="translate(683,576)"/>
<path d="M0 0 C1.65 0 3.3 0 5 0 C5.06058594 1.20398438 5.12117188 2.40796875 5.18359375 3.6484375 C5.26799732 5.22397077 5.35264541 6.79949096 5.4375 8.375 C5.47681641 9.1690625 5.51613281 9.963125 5.55664062 10.78125 C5.68893404 15.02601221 5.68893404 15.02601221 7 19 C10.04386724 19.08226668 12.07175348 18.97608217 15 18 C15 12.06 15 6.12 15 0 C16.98 0 18.96 0 21 0 C21 8.25 21 16.5 21 25 C19.35 25 17.7 25 16 25 C15.67 24.34 15.34 23.68 15 23 C14.319375 23.515625 13.63875 24.03125 12.9375 24.5625 C9.10852228 26.43625505 7.06665724 26.12962701 3 25 C0.94697553 22.88093998 0.07934568 21.55490785 -0.34057617 18.61816406 C-0.32486572 17.75932617 -0.30915527 16.90048828 -0.29296875 16.015625 C-0.28330078 15.08105469 -0.27363281 14.14648438 -0.26367188 13.18359375 C-0.23853516 12.21550781 -0.21339844 11.24742187 -0.1875 10.25 C-0.17396484 9.26644531 -0.16042969 8.28289063 -0.14648438 7.26953125 C-0.11118726 4.84579585 -0.06188054 2.42317855 0 0 Z " fill="#1BB6AA" transform="translate(481,577)"/>
<path d="M0 0 C1.65 0 3.3 0 5 0 C5.06058594 1.20398438 5.12117187 2.40796875 5.18359375 3.6484375 C5.26799732 5.22397077 5.35264541 6.79949096 5.4375 8.375 C5.47681641 9.1690625 5.51613281 9.963125 5.55664062 10.78125 C5.68893404 15.02601221 5.68893404 15.02601221 7 19 C9.41645782 19.16687448 9.41645782 19.16687448 12 19 C15.02093215 15.97906785 14.46676834 12.43627928 14.625 8.375 C14.66367187 7.57320312 14.70234375 6.77140625 14.7421875 5.9453125 C14.83653931 3.96392444 14.91936215 1.98199355 15 0 C16.65 0 18.3 0 20 0 C20 8.25 20 16.5 20 25 C18.68 25 17.36 25 16 25 C16 24.01 16 23.02 16 22 C14.7315625 23.0209375 14.7315625 23.0209375 13.4375 24.0625 C10 26 10 26 6.3125 25.9375 C2.99376907 24.99823653 1.99077542 24.67277631 0 22 C-0.34057617 19.63989258 -0.34057617 19.63989258 -0.29296875 16.89453125 C-0.28330078 15.91162109 -0.27363281 14.92871094 -0.26367188 13.91601562 C-0.23853516 12.89185547 -0.21339844 11.86769531 -0.1875 10.8125 C-0.17396484 9.77673828 -0.16042969 8.74097656 -0.14648438 7.67382812 C-0.11111389 5.11536301 -0.06175544 2.5579422 0 0 Z " fill="#1BB9AD" transform="translate(778,577)"/>
<path d="M0 0 C1.98 0 3.96 0 6 0 C6 1.98 6 3.96 6 6 C7.98 6 9.96 6 12 6 C12 7.65 12 9.3 12 11 C10.02 11 8.04 11 6 11 C6.33 16.28 6.66 21.56 7 27 C8.65 27.33 10.3 27.66 12 28 C12 29.32 12 30.64 12 32 C4.72727273 33.45454545 4.72727273 33.45454545 1.75 31.59375 C-0.85465306 27.73328207 -0.43449484 24.29141145 -0.25 19.75 C-0.23195313 18.90953125 -0.21390625 18.0690625 -0.1953125 17.203125 C-0.14830798 15.13492605 -0.07656724 13.06731559 0 11 C-1.32 11 -2.64 11 -4 11 C-4 9.68 -4 8.36 -4 7 C-2.68 7 -1.36 7 0 7 C0 4.69 0 2.38 0 0 Z " fill="#1DAEA4" transform="translate(636,570)"/>
<path d="M0 0 C4.12628567 0.56914285 5.71424265 1.58924265 8.625 4.5 C10.11852829 7.48705657 9.89067862 10.5381251 9.9375 13.8125 C9.97488281 15.12863281 10.01226563 16.44476562 10.05078125 17.80078125 C9.56385575 22.03122569 8.69937714 23.60932905 5.625 26.5 C2.93315971 27.73148969 0.55256722 27.83089361 -2.375 27.5 C-6.85169473 25.50147557 -6.85169473 25.50147557 -8.375 22.5 C-8.87563471 17.79190338 -8.7195812 13.21565756 -8.375 8.5 C-8.045 8.5 -7.715 8.5 -7.375 8.5 C-7.375 12.13 -7.375 15.76 -7.375 19.5 C-2.91671653 21.7392439 -2.91671653 21.7392439 -0.125 21.25 C1.82563358 20.63701805 1.82563358 20.63701805 2.625 18.5 C2.74582534 16.83654418 2.8003794 15.16779409 2.8125 13.5 C2.82667969 12.613125 2.84085938 11.72625 2.85546875 10.8125 C2.85213126 8.30480016 2.85213126 8.30480016 0.625 6.5 C-2.45847826 6.33318891 -2.45847826 6.33318891 -5.375 6.5 C-5.705 5.84 -6.035 5.18 -6.375 4.5 C-4.59664868 1.15251516 -3.83793714 0.56858328 0 0 Z " fill="#1BB4A9" transform="translate(749.375,575.5)"/>
<path d="M0 0 C1.65 0 3.3 0 5 0 C5 1.98 5 3.96 5 6 C6.98 6 8.96 6 11 6 C11 7.32 11 8.64 11 10 C9.02 10 7.04 10 5 10 C5.33 14.95 5.66 19.9 6 25 C9.63619656 26.08084521 9.63619656 26.08084521 12 26 C12 27.65 12 29.3 12 31 C4.81553398 32.3171521 4.81553398 32.3171521 1.75 31.125 C-1.14406509 27.61077811 -0.41701894 23.70317106 -0.25 19.3125 C-0.23195313 18.41982422 -0.21390625 17.52714844 -0.1953125 16.60742188 C-0.14817759 14.40386496 -0.08240657 12.20247399 0 10 C-1.32 10 -2.64 10 -4 10 C-4 8.68 -4 7.36 -4 6 C-2.68 6 -1.36 6 0 6 C0 4.02 0 2.04 0 0 Z " fill="#19BEB2" transform="translate(576,571)"/>
<path d="M0 0 C1.98 0 3.96 0 6 0 C6 12.54 6 25.08 6 38 C4.02 38 2.04 38 0 38 C0 25.46 0 12.92 0 0 Z " fill="#1BB1A7" transform="translate(845,564)"/>
<path d="M0 0 C0.66 0.33 1.32 0.66 2 1 C1.89290997 25.49491511 1.78017577 49.98979855 1.66066074 74.48465633 C1.60530463 85.85719191 1.55181878 97.22973062 1.50268555 108.60229492 C1.4598729 118.51078836 1.41360239 128.41925848 1.36312145 138.32771593 C1.33649692 143.57761537 1.31164335 148.8275101 1.29092598 154.07743645 C1.27139546 159.01279264 1.24726265 163.94810435 1.21950912 168.88342094 C1.21011962 170.7003448 1.20245123 172.51727844 1.19658089 174.33421707 C1.18835182 176.80370686 1.17408449 179.27308772 1.15821838 181.74253845 C1.15724028 182.47112389 1.15626217 183.19970933 1.15525442 183.95037311 C1.11412121 188.88587879 1.11412121 188.88587879 0 190 C-2.9375 190.1875 -2.9375 190.1875 -6 190 C-6.66 189.34 -7.32 188.68 -8 188 C-7.625 185.875 -7.625 185.875 -7 184 C-5.02 184.66 -3.04 185.32 -1 186 C-0.67 124.62 -0.34 63.24 0 0 Z " fill="#297574" transform="translate(214,275)"/>
<path d="M0 0 C1.65 0 3.3 0 5 0 C5 12.21 5 24.42 5 37 C3.35 37 1.7 37 0 37 C0 24.79 0 12.58 0 0 Z " fill="#1AB9AE" transform="translate(549,565)"/>
<path d="M0 0 C2.26731773 1.65524839 2.92305438 2.54813307 3.3984375 5.33984375 C3.39070312 6.19707031 3.38296875 7.05429687 3.375 7.9375 C3.38273438 8.79214844 3.39046875 9.64679687 3.3984375 10.52734375 C2.92244902 13.48127224 2.07590167 14.86562223 0 17 C-3.1098951 17.45352637 -5.04591544 17.67860944 -7.6640625 15.81640625 C-9.50020807 13.31989253 -9.39977358 11.57192379 -9.375 8.5 C-9.38273438 7.5409375 -9.39046875 6.581875 -9.3984375 5.59375 C-9 3 -9 3 -7.6640625 1.1796875 C-5.07427387 -0.65626595 -3.07812588 -0.38476574 0 0 Z " fill="#37373E" transform="translate(681,581)"/>
<path d="M0 0 C7.32874318 0.13571747 12.75731777 2.80841604 18 8 C18.91015625 10.609375 18.91015625 10.609375 19 13 C17 15 17 15 14.203125 15.3359375 C10.43207008 14.94043662 8.75854817 13.88602546 5.75 11.625 C4.47382813 10.68527344 4.47382813 10.68527344 3.171875 9.7265625 C1 8 1 8 -1 6 C-0.625 2.875 -0.625 2.875 0 0 Z " fill="#1DAAA2" transform="translate(294,455)"/>
<path d="M0 0 C8.06804744 0 12.10308246 2.6607106 18 8 C17.125 12.875 17.125 12.875 16 14 C11.413156 14.57742185 9.00812628 13.08653887 5.25 10.5625 C4.28578125 9.92441406 3.3215625 9.28632813 2.328125 8.62890625 C0 7 0 7 -1 6 C-1.125 3.5 -1.125 3.5 -1 1 C-0.67 0.67 -0.34 0.34 0 0 Z " fill="#1DA8A1" transform="translate(295,430)"/>
<path d="M0 0 C3.52054684 1.94679246 7.13962907 4.13962907 10 7 C10.1875 9.4375 10.1875 9.4375 10 12 C9.34 12.66 8.68 13.32 8 14 C1.96034261 14 -2.33816934 10.45466187 -7 7 C-8 6 -8 6 -8.0625 3.4375 C-8.041875 2.633125 -8.02125 1.82875 -8 1 C-5.00818583 -0.49590709 -3.3583794 -0.42743011 0 0 Z " fill="#1CADA5" transform="translate(301,403)"/>
<path d="M0 0 C3.92514387 0.32216424 6.49087857 1.71777476 9.6875 3.9375 C10.45449219 4.46214844 11.22148437 4.98679687 12.01171875 5.52734375 C14 7 14 7 16 9 C16.1875 11.5625 16.1875 11.5625 16 14 C15.67 14.33 15.34 14.66 15 15 C8.56874776 14.86601558 3.72208794 12.3596249 -1 8 C-2.1875 4.75 -2.1875 4.75 -2 2 C-1.34 1.34 -0.68 0.68 0 0 Z " fill="#1CABA4" transform="translate(296,482)"/>
<path d="M0 0 C1.98 0 3.96 0 6 0 C6 8.58 6 17.16 6 26 C4.02 26 2.04 26 0 26 C0 17.42 0 8.84 0 0 Z " fill="#1AB6AB" transform="translate(819,576)"/>
<path d="M0 0 C2.375 0.8125 2.375 0.8125 4.375 2.8125 C4.67578125 5.0546875 4.67578125 5.0546875 4.6875 7.6875 C4.70425781 8.55117188 4.72101563 9.41484375 4.73828125 10.3046875 C4.31257021 13.24346692 3.31553466 14.61083799 1.375 16.8125 C-2.32642114 16.31230795 -4.32166796 15.81080292 -6.625 12.8125 C-7.05859375 10.4375 -7.05859375 10.4375 -7.0625 7.8125 C-7.08183594 6.94625 -7.10117187 6.08 -7.12109375 5.1875 C-6.625 2.8125 -6.625 2.8125 -4.76171875 0.98828125 C-2.625 -0.1875 -2.625 -0.1875 0 0 Z " fill="#363C41" transform="translate(451.625,581.1875)"/>
<path d="M0 0 C4.56310717 0.3753205 7.70135853 2.86680807 10.70703125 6.22265625 C11.26953125 10.03515625 11.26953125 10.03515625 10.70703125 13.22265625 C9.70703125 14.22265625 9.70703125 14.22265625 7.14453125 14.66015625 C2.23374636 14.03514726 -0.60139074 11.37080399 -4.29296875 8.22265625 C-3.28707275 0.31918764 -3.28707275 0.31918764 0 0 Z " fill="#1DA8A1" transform="translate(233.29296875,316.77734375)"/>
<path d="M0 0 C2.4375 0.8125 2.4375 0.8125 4.4375 2.8125 C4.73828125 5.0546875 4.73828125 5.0546875 4.75 7.6875 C4.76675781 8.55117188 4.78351562 9.41484375 4.80078125 10.3046875 C4.37507021 13.24346692 3.37803466 14.61083799 1.4375 16.8125 C-3.3125 16.0625 -3.3125 16.0625 -5.5625 13.8125 C-5.86328125 11.31640625 -5.86328125 11.31640625 -5.875 8.375 C-5.89175781 7.40691406 -5.90851562 6.43882812 -5.92578125 5.44140625 C-5.5625 2.8125 -5.5625 2.8125 -4.203125 0.953125 C-2.5625 -0.1875 -2.5625 -0.1875 0 0 Z " fill="#37383E" transform="translate(748.5625,581.1875)"/>
<path d="M0 0 C2.4375 0.8125 2.4375 0.8125 4.4375 2.8125 C4.73828125 5.08984375 4.73828125 5.08984375 4.75 7.75 C4.76675781 8.62527344 4.78351562 9.50054688 4.80078125 10.40234375 C4.4375 12.8125 4.4375 12.8125 3.1171875 14.6171875 C0.61221893 16.39979304 -1.57895945 16.0114027 -4.5625 15.8125 C-5.85254296 13.23241408 -5.76660224 11.25508426 -5.8125 8.375 C-5.83828125 7.40691406 -5.8640625 6.43882812 -5.890625 5.44140625 C-5.5625 2.8125 -5.5625 2.8125 -4.20703125 0.953125 C-2.5625 -0.1875 -2.5625 -0.1875 0 0 Z " fill="#36363D" transform="translate(883.5625,581.1875)"/>
<path d="M0 0 C3.47552338 0.34755234 4.83993243 0.67588358 7.125 3.3125 C7.75543629 7.01631323 7.58743329 8.6445408 5.4375 11.75 C3.125 13.3125 3.125 13.3125 0.625 13.375 C-2.71051973 11.95740412 -4.03873219 10.42003014 -5.875 7.3125 C-5.66875596 2.87825309 -4.67869592 0.5085539 0 0 Z " fill="#1EA39D" transform="translate(165.875,409.6875)"/>
<path d="M0 0 C1.65 0 3.3 0 5 0 C5 8.25 5 16.5 5 25 C3.35 25 1.7 25 0 25 C0 16.75 0 8.5 0 0 Z " fill="#19BDB0" transform="translate(523,577)"/>
<path d="M0 0 C5.01818254 0.47792215 7.93380921 2.46322488 11.9375 5.375 C10.78576645 7.84300047 9.88966435 9.42283565 7.9375 11.375 C2.99400241 11.15029556 -0.31907477 9.5836502 -4.0625 6.375 C-4.5 3.6875 -4.5 3.6875 -4.0625 1.375 C-3.0625 0.375 -3.0625 0.375 0 0 Z " fill="#1DAAA3" transform="translate(233.0625,344.625)"/>
<path d="M0 0 C0.928125 0.0825 1.85625 0.165 2.8125 0.25 C4.29650777 2.60695352 4.82820001 3.93599981 4.6875 6.75 C3.59773867 9.86360381 2.48791442 11.31775625 -0.1875 13.25 C-2.8125 13.1875 -2.8125 13.1875 -5.1875 12.25 C-7.1875 9.25 -7.1875 9.25 -7 6.8125 C-5.61787567 2.45349249 -4.79721243 0.37625196 0 0 Z " fill="#1EA59F" transform="translate(167.1875,434.75)"/>
<path d="M0 0 C0 3 0 3 -2.40625 5.69921875 C-3.4299968 6.70302243 -4.4616054 7.69885649 -5.5 8.6875 C-6.02464844 9.19861328 -6.54929688 9.70972656 -7.08984375 10.23632812 C-8.38660904 11.49772708 -9.69246117 12.74977212 -11 14 C-6.62970634 19.22948744 -2.03088196 24.10289955 2.8046875 28.90234375 C3.8906572 29.98619102 3.8906572 29.98619102 4.99856567 31.0919342 C7.28835265 33.37616922 9.58160993 35.65688312 11.875 37.9375 C13.43773161 39.49521039 15.0002339 41.05315087 16.5625 42.61132812 C20.3723531 46.41021602 24.18505379 50.20622713 28 54 C27.505 54.99 27.505 54.99 27 56 C25.77083333 54.77083333 24.54166667 53.54166667 23.3125 52.3125 C22.5803125 51.58160156 21.848125 50.85070312 21.09375 50.09765625 C19.4903905 48.4913054 17.89880447 46.87319527 16.3125 45.25 C14.07059975 42.97899948 14.07059975 42.97899948 11.625 41.1875 C8.84423604 38.8701967 6.70934522 36.38059108 4.3828125 33.62109375 C2.37687459 31.41456205 0.32676624 29.35085127 -1.8203125 27.28515625 C-2.50496582 26.62233643 -3.18961914 25.9595166 -3.89501953 25.27661133 C-5.2896214 23.93393096 -6.69419864 22.60152943 -8.10888672 21.2800293 C-8.7535791 20.65652588 -9.39827148 20.03302246 -10.0625 19.390625 C-10.65160156 18.83407227 -11.24070313 18.27751953 -11.84765625 17.70410156 C-13 16 -13 16 -12.85375977 13.9765625 C-11.92037364 11.81565484 -10.96290984 10.61671269 -9.27734375 8.984375 C-8.73916016 8.45585938 -8.20097656 7.92734375 -7.64648438 7.3828125 C-7.08251953 6.84398437 -6.51855469 6.30515625 -5.9375 5.75 C-5.36966797 5.19570313 -4.80183594 4.64140625 -4.21679688 4.0703125 C-2.81787531 2.70665786 -1.40980886 1.35239583 0 0 Z " fill="#3A2E36" transform="translate(230,530)"/>
<path d="M0 0 C1.670625 0.061875 1.670625 0.061875 3.375 0.125 C2.385 2.105 1.395 4.085 0.375 6.125 C-0.285 6.125 -0.945 6.125 -1.625 6.125 C-1.625 11.075 -1.625 16.025 -1.625 21.125 C0.025 21.125 1.675 21.125 3.375 21.125 C3.375 21.455 3.375 21.785 3.375 22.125 C1.395 22.125 -0.585 22.125 -2.625 22.125 C-5.45522097 18.12939392 -4.38710446 14.69762677 -3.625 10.125 C-5.275 10.125 -6.925 10.125 -8.625 10.125 C-8.625 13.095 -8.625 16.065 -8.625 19.125 C-8.955 19.125 -9.285 19.125 -9.625 19.125 C-10.07116681 12.15984039 -10.32425348 7.51532017 -5.625 2.125 C-3.625 0.125 -3.625 0.125 0 0 Z " fill="#1EA49B" transform="translate(880.625,575.875)"/>
<path d="M0 0 C0.33 0 0.66 0 1 0 C1 4.95 1 9.9 1 15 C3.64 15.33 6.28 15.66 9 16 C9 17.65 9 19.3 9 21 C1.80796836 22.31853913 1.80796836 22.31853913 -1.30859375 21.08984375 C-3.33285231 18.58873906 -3.1991028 17.92317331 -2.98828125 14.8046875 C-2.78484884 13.1586135 -2.55866178 11.51522825 -2.3125 9.875 C-2.20744141 9.03839844 -2.10238281 8.20179688 -1.99414062 7.33984375 C-1.18055556 1.18055556 -1.18055556 1.18055556 0 0 Z " fill="#1CB0A6" transform="translate(579,581)"/>
<path d="M0 0 C0.66 0 1.32 0 2 0 C2 5.28 2 10.56 2 16 C2.99 16 3.98 16 5 16 C5 11.05 5 6.1 5 1 C5.33 1 5.66 1 6 1 C6.06058594 1.98742187 6.12117187 2.97484375 6.18359375 3.9921875 C6.26738281 5.27351562 6.35117187 6.55484375 6.4375 7.875 C6.51871094 9.15117188 6.59992187 10.42734375 6.68359375 11.7421875 C6.79206027 14.88300152 6.79206027 14.88300152 8 17 C10.52733235 17.65555119 10.52733235 17.65555119 13 18 C13 19.32 13 20.64 13 22 C5.73195876 23.45360825 5.73195876 23.45360825 2.78125 21.625 C0.10393677 17.67948577 0.3258782 13.9199581 0.25 9.25 C0.22035156 8.36183594 0.19070313 7.47367188 0.16015625 6.55859375 C0.08963082 4.37230551 0.03685363 2.18707232 0 0 Z " fill="#1BB9AE" transform="translate(635,580)"/>
<path d="M0 0 C0.66 0 1.32 0 2 0 C2.33 4.29 2.66 8.58 3 13 C3.99 13.33 4.98 13.66 6 14 C6.33 14.99 6.66 15.98 7 17 C6.67 17.33 6.34 17.66 6 18 C5.76636119 19.84891946 5.58696365 21.70488031 5.4375 23.5625 C5.35371094 24.57441406 5.26992188 25.58632813 5.18359375 26.62890625 C5.12300781 27.41136719 5.06242188 28.19382812 5 29 C4.67 29 4.34 29 4 29 C4 25.37 4 21.74 4 18 C2.68 18.33 1.36 18.66 0 19 C0 12.73 0 6.46 0 0 Z " fill="#1EA79E" transform="translate(738,566)"/>
<path d="M0 0 C1.98 0 3.96 0 6 0 C6 0.66 6 1.32 6 2 C4.68 2 3.36 2 2 2 C2 9.59 2 17.18 2 25 C3.32 25.33 4.64 25.66 6 26 C4.02 26 2.04 26 0 26 C0 17.42 0 8.84 0 0 Z " fill="#1CAEA4" transform="translate(819,576)"/>
<path d="M0 0 C6.93 0 13.86 0 21 0 C21 0.66 21 1.32 21 2 C15.06 2 9.12 2 3 2 C3.33 3.65 3.66 5.3 4 7 C1.23609263 4.59660228 0.95934081 3.83736322 0 0 Z " fill="#1BB0A8" transform="translate(890,407)"/>
<path d="M0 0 C6.93 0 13.86 0 21 0 C20.34 1.32 19.68 2.64 19 4 C18.67 3.34 18.34 2.68 18 2 C12.06 2.33 6.12 2.66 0 3 C0 2.01 0 1.02 0 0 Z " fill="#1BB1A8" transform="translate(946,407)"/>
<path d="M0 0 C0.33 0 0.66 0 1 0 C1.03738281 0.60328125 1.07476563 1.2065625 1.11328125 1.828125 C1.40399207 5.3622565 1.68708437 8.32476102 3.1875 11.5625 C5.77931929 13.61808082 7.79320746 13.28504823 11 13 C11.33 13.66 11.66 14.32 12 15 C3.25834128 15.60057197 3.25834128 15.60057197 -0.75 13.6875 C-2.85856264 9.15409033 -1.19839653 4.69641885 0 0 Z " fill="#1DB1A5" transform="translate(671,586)"/>
<path d="M0 0 C2.05078125 0.03255208 4.1015625 0.06510417 6.15234375 0.09765625 C6.48234375 0.75765625 6.81234375 1.41765625 7.15234375 2.09765625 C6.05921875 2.18015625 4.96609375 2.26265625 3.83984375 2.34765625 C0.23552392 2.77722986 0.23552392 2.77722986 -1.72265625 4.66015625 C-3.32464575 8.1311335 -3.53043383 11.2909872 -3.84765625 15.09765625 C-4.17765625 15.09765625 -4.50765625 15.09765625 -4.84765625 15.09765625 C-5.17765625 12.12765625 -5.50765625 9.15765625 -5.84765625 6.09765625 C-6.50765625 6.09765625 -7.16765625 6.09765625 -7.84765625 6.09765625 C-7.84765625 5.43765625 -7.84765625 4.77765625 -7.84765625 4.09765625 C-6.21133733 3.04873387 -4.54279762 2.04858922 -2.84765625 1.09765625 C-1.84765625 0.09765625 -1.84765625 0.09765625 0 0 Z " fill="#1ABEB1" transform="translate(674.84765625,578.90234375)"/>
<path d="M0 0 C2.31 0 4.62 0 7 0 C7 1.98 7 3.96 7 6 C4.69 6 2.38 6 0 6 C0 4.02 0 2.04 0 0 Z " fill="#1BB5AA" transform="translate(522,566)"/>
<path d="M0 0 C0.33 0 0.66 0 1 0 C1.04254356 1.99954746 1.04080783 4.00041636 1 6 C0 7 0 7 -2.9375 7.1875 C-6 7 -6 7 -8 5 C-7.625 2.875 -7.625 2.875 -7 1 C-5.02 1.66 -3.04 2.32 -1 3 C-0.67 2.01 -0.34 1.02 0 0 Z " fill="#287372" transform="translate(214,458)"/>
<path d="M0 0 C1.98 0 3.96 0 6 0 C6 1.98 6 3.96 6 6 C4.02 6 2.04 6 0 6 C0 4.02 0 2.04 0 0 Z " fill="#18BEB2" transform="translate(819,566)"/>
<path d="M0 0 C0.33 0 0.66 0 1 0 C1 3.96 1 7.92 1 12 C1.66 12 2.32 12 3 12 C3.33 11.34 3.66 10.68 4 10 C4.33 11.65 4.66 13.3 5 15 C5.99 15.33 6.98 15.66 8 16 C5.3333581 17.33332095 3.83319697 16.67102033 1 16 C-0.14077657 12.57767028 -0.09815117 9.91326783 -0.0625 6.3125 C-0.05347656 5.13300781 -0.04445312 3.95351563 -0.03515625 2.73828125 C-0.02355469 1.83464844 -0.01195312 0.93101562 0 0 Z " fill="#238281" transform="translate(157,345)"/>
<path d="M0 0 C0 0.99 0 1.98 0 3 C-0.804375 3.61875 -1.60875 4.2375 -2.4375 4.875 C-5.57332304 7.71850055 -5.51967139 10.72620987 -5.8125 14.8125 C-5.89716508 16.87420908 -5.96677164 18.93682081 -6 21 C-6.33 21 -6.66 21 -7 21 C-7.13572155 18.60225255 -7.23436868 16.21224755 -7.3125 13.8125 C-7.35439453 13.13896484 -7.39628906 12.46542969 -7.43945312 11.77148438 C-7.53676648 7.78163682 -7.16454409 6.2010498 -4.60546875 3.07421875 C-2 1 -2 1 0 0 Z " fill="#1BB2AA" transform="translate(165,290)"/>
<path d="M0 0 C1.258125 -0.04125 2.51625 -0.0825 3.8125 -0.125 C4.52019531 -0.14820313 5.22789062 -0.17140625 5.95703125 -0.1953125 C8 0 8 0 11 2 C10.67 2.99 10.34 3.98 10 5 C10.33 5.66 10.66 6.32 11 7 C8.03 6.01 5.06 5.02 2 4 C2.66 3.34 3.32 2.68 4 2 C2.68 1.34 1.36 0.68 0 0 Z " fill="#19BDB0" transform="translate(878,577)"/>
<path d="M0 0 C1.65 0 3.3 0 5 0 C4.34 2.31 3.68 4.62 3 7 C3.66 7.66 4.32 8.32 5 9 C2.13275314 8.42655063 1.1385485 8.1385485 -1 6 C-0.625 2.875 -0.625 2.875 0 0 Z " fill="#1BB0A8" transform="translate(294,455)"/>
<path d="M0 0 C3.16854747 0.57691478 4.78226459 1.41646887 7.015625 3.72265625 C7.54414063 4.26083984 8.07265625 4.79902344 8.6171875 5.35351562 C9.15601563 5.91748047 9.69484375 6.48144531 10.25 7.0625 C10.80429688 7.63033203 11.35859375 8.19816406 11.9296875 8.78320312 C13.29334214 10.18212469 14.64760417 11.59019114 16 13 C15.34 13.66 14.68 14.32 14 15 C13.24074219 14.16855469 12.48148438 13.33710937 11.69921875 12.48046875 C10.69534886 11.38277925 9.6914406 10.28512484 8.6875 9.1875 C8.18798828 8.64029297 7.68847656 8.09308594 7.17382812 7.52929688 C4.83056872 4.96878163 2.48855146 2.42060466 0 0 Z " fill="#1BB3AA" transform="translate(207,552)"/>
<path d="M0 0 C3.875 1.75 3.875 1.75 5 4 C4.01 4 3.02 4 2 4 C2 7.63 2 11.26 2 15 C1.67 15 1.34 15 1 15 C0.63684334 13.0641649 0.28477269 11.12624752 -0.0625 9.1875 C-0.25972656 8.10855469 -0.45695313 7.02960937 -0.66015625 5.91796875 C-1 3 -1 3 0 0 Z " fill="#1ABDB0" transform="translate(684,578)"/>
<path d="M0 0 C2 0 2 0 3.5859375 1.57421875 C4.17632812 2.27160156 4.76671875 2.96898437 5.375 3.6875 C6.30119141 4.77611328 6.30119141 4.77611328 7.24609375 5.88671875 C9.19461463 8.23449112 11.1215998 10.59564775 13 13 C10 13 10 13 8.28125 11.35546875 C7.6934375 10.64003906 7.105625 9.92460937 6.5 9.1875 C4.0034828 6.17056027 4.0034828 6.17056027 1.28125 3.36328125 C0 2 0 2 0 0 Z " fill="#393139" transform="translate(194,471)"/>
<path d="M0 0 C-0.66 1.32 -1.32 2.64 -2 4 C-4.31 3.67 -6.62 3.34 -9 3 C-8.34 2.67 -7.68 2.34 -7 2 C-7 1.34 -7 0.68 -7 0 C-3.98968256 -0.93423645 -3.13349732 -1.04449911 0 0 Z " fill="#1BB8AD" transform="translate(792,598)"/>
<path d="M0 0 C3.3 0 6.6 0 10 0 C10.33 1.65 10.66 3.3 11 5 C10.34 4.34 9.68 3.68 9 3 C6.79749008 2.53993654 6.79749008 2.53993654 4.375 2.375 C3.14910156 2.26285156 3.14910156 2.26285156 1.8984375 2.1484375 C1.27195312 2.09945313 0.64546875 2.05046875 0 2 C0 1.34 0 0.68 0 0 Z " fill="#383239" transform="translate(788,483)"/>
<path d="M0 0 C2.64 0 5.28 0 8 0 C8 1.65 8 3.3 8 5 C7.67 4.34 7.34 3.68 7 3 C4.47266765 2.34444881 4.47266765 2.34444881 2 2 C1.67 2.66 1.34 3.32 1 4 C0.67 2.68 0.34 1.36 0 0 Z " fill="#208E8B" transform="translate(206,458)"/>
<path d="M0 0 C0.99 0.33 1.98 0.66 3 1 C3.845625 1.268125 4.69125 1.53625 5.5625 1.8125 C8.36380824 3.17723991 8.94844171 4.13211375 10 7 C9.46375 6.505 8.9275 6.01 8.375 5.5 C5.40641555 3.62510456 3.44687573 3.76498575 0 4 C-0.33 3.34 -0.66 2.68 -1 2 C-0.67 1.34 -0.34 0.68 0 0 Z " fill="#1ABFB4" transform="translate(744,578)"/>
<path d="M0 0 C0.33 0 0.66 0 1 0 C1 3.96 1 7.92 1 12 C-0.32 11.67 -1.64 11.34 -3 11 C-3 10.34 -3 9.68 -3 9 C-2.34 8.67 -1.68 8.34 -1 8 C-0.53476937 6.10466658 -0.53476937 6.10466658 -0.375 3.9375 C-0.25125 2.638125 -0.1275 1.33875 0 0 Z " fill="#383238" transform="translate(887,566)"/>
<path d="M0 0 C4.40114397 0.50298788 6.71195019 2.08772731 10 5 C9.67 5.99 9.34 6.98 9 8 C8.34 7.01 7.68 6.02 7 5 C5.2820354 3.79517061 5.2820354 3.79517061 3.375 2.8125 C2.26125 2.214375 1.1475 1.61625 0 1 C0 0.67 0 0.34 0 0 Z " fill="#1AB1A9" transform="translate(302,432)"/>
<path d="M0 0 C0.33 0 0.66 0 1 0 C1.04898438 0.61488281 1.09796875 1.22976563 1.1484375 1.86328125 C1.22320313 2.67152344 1.29796875 3.47976563 1.375 4.3125 C1.44460938 5.11300781 1.51421875 5.91351562 1.5859375 6.73828125 C1.89564426 9.27224441 1.89564426 9.27224441 4 12 C2.0625 11.6875 2.0625 11.6875 0 11 C-1.35015859 6.94952424 -0.62084998 4.2079832 0 0 Z " fill="#209E95" transform="translate(671,586)"/>
<path d="M0 0 C0.70125 0.309375 1.4025 0.61875 2.125 0.9375 C5.08936657 2.03302678 7.87698108 2.56422992 11 3 C11 3.33 11 3.66 11 4 C9.741875 4.020625 8.48375 4.04125 7.1875 4.0625 C6.47980469 4.07410156 5.77210938 4.08570313 5.04296875 4.09765625 C3 4 3 4 0 3 C0 2.01 0 1.02 0 0 Z " fill="#392D36" transform="translate(445,600)"/>
<path d="M0 0 C0.66 0.66 1.32 1.32 2 2 C3.31747324 2.69748583 4.64914193 3.36959957 6 4 C4.68 4 3.36 4 2 4 C2 4.66 2 5.32 2 6 C1.01 6.33 0.02 6.66 -1 7 C-0.67 4.69 -0.34 2.38 0 0 Z " fill="#1EA79D" transform="translate(783,594)"/>
<path d="M0 0 C0.33 0.99 0.66 1.98 1 3 C-1 5 -1 5 -4.625 5.125 C-5.73875 5.08375 -6.8525 5.0425 -8 5 C-7.4225 4.731875 -6.845 4.46375 -6.25 4.1875 C-3.9674132 2.98280141 -2.0262058 1.59201885 0 0 Z " fill="#19B9AE" transform="translate(496,594)"/>
<path d="M0 0 C1.52299523 2.93720508 2.80100302 5.9168649 4 9 C2.35 7.68 0.7 6.36 -1 5 C-0.67 3.35 -0.34 1.7 0 0 Z " fill="#1FA099" transform="translate(174,461)"/>
</svg>
